{
    "asset" : {
        "generator" : "Khronos glTF Blender I/O v1.6.16",
        "version" : "2.0"
    },
    "scene" : 0,
    "scenes" : [
        {
            "name" : "Scene",
            "nodes" : [
                0,
                1,
                2,
                3,
                4,
                5,
                6,
                7
            ]
        }
    ],
    "nodes" : [
        {
            "mesh" : 0,
            "name" : "Cube",
            "scale" : [
                3.31673002243042,
                1.7951436042785645,
                3.31673002243042
            ]
        },
        {
            "mesh" : 1,
            "name" : "Cube.001",
            "rotation" : [
                0,
                0,
                0.0013244164874777198,
                1
            ],
            "scale" : [
                3.3234734535217285,
                0.9745662212371826,
                3.3234734535217285
            ],
            "translation" : [
                -0.0013472558930516243,
                2.7897896766662598,
                0.027218006551265717
            ]
        },
        {
            "mesh" : 2,
            "name" : "Cylinder",
            "rotation" : [
                0.7071067690849304,
                0,
                0,
                0.7071068286895752
            ],
            "scale" : [
                0.15245336294174194,
                0.3832855820655823,
                0.15245336294174194
            ],
            "translation" : [
                -3.2786648273468018,
                1.8404695987701416,
                0
            ]
        },
        {
            "mesh" : 3,
            "name" : "Cylinder.001",
            "rotation" : [
                0.7071067690849304,
                0,
                0,
                0.7071068286895752
            ],
            "scale" : [
                0.15245336294174194,
                0.3832855820655823,
                0.15245336294174194
            ],
            "translation" : [
                -3.2786648273468018,
                1.8404695987701416,
                -0.7884539365768433
            ]
        },
        {
            "mesh" : 4,
            "name" : "Cylinder.002",
            "rotation" : [
                0.7071067690849304,
                0,
                0,
                0.7071068286895752
            ],
            "scale" : [
                0.15245336294174194,
                0.3832855820655823,
                0.15245336294174194
            ],
            "translation" : [
                -3.2786648273468018,
                1.8404695987701416,
                0.7843537926673889
            ]
        },
        {
            "mesh" : 5,
            "name" : "Cylinder.003",
            "rotation" : [
                0.7071067690849304,
                0,
                0,
                0.7071068286895752
            ],
            "scale" : [
                0.0784776508808136,
                1.2565555572509766,
                0.0784776508808136
            ],
            "translation" : [
                -3.2786648273468018,
                1.8404695987701416,
                0
            ]
        },
        {
            "mesh" : 6,
            "name" : "Cube.002",
            "rotation" : [
                0,
                0,
                0.0013244164874777198,
                1
            ],
            "scale" : [
                0.12223422527313232,
                0.4638901948928833,
                0.3313788175582886
            ],
            "translation" : [
                3.466236114501953,
                1.7640995979309082,
                0.027218006551265717
            ]
        },
        {
            "name" : "Sun",
            "translation" : [
                19.08564567565918,
                6.271810531616211,
                11.060699462890625
            ]
        }
    ],
    "materials" : [
        {
            "doubleSided" : true,
            "name" : "Material.001",
            "pbrMetallicRoughness" : {
                "metallicFactor" : 0,
                "roughnessFactor" : 0.5
            }
        },
        {
            "doubleSided" : true,
            "name" : "metal",
            "pbrMetallicRoughness" : {
                "baseColorFactor" : [
                    0.800000011920929,
                    0.800000011920929,
                    0.800000011920929,
                    1
                ],
                "roughnessFactor" : 0.5
            }
        }
    ],
    "meshes" : [
        {
            "name" : "Cube.001",
            "primitives" : [
                {
                    "attributes" : {
                        "POSITION" : 0,
                        "NORMAL" : 1,
                        "TEXCOORD_0" : 2
                    },
                    "indices" : 3,
                    "material" : 0
                }
            ]
        },
        {
            "name" : "Cube.002",
            "primitives" : [
                {
                    "attributes" : {
                        "POSITION" : 4,
                        "NORMAL" : 5,
                        "TEXCOORD_0" : 6
                    },
                    "indices" : 7,
                    "material" : 0
                }
            ]
        },
        {
            "name" : "Cylinder",
            "primitives" : [
                {
                    "attributes" : {
                        "POSITION" : 8,
                        "NORMAL" : 9,
                        "TEXCOORD_0" : 10
                    },
                    "indices" : 11
                }
            ]
        },
        {
            "name" : "Cylinder.001",
            "primitives" : [
                {
                    "attributes" : {
                        "POSITION" : 12,
                        "NORMAL" : 13,
                        "TEXCOORD_0" : 14
                    },
                    "indices" : 11
                }
            ]
        },
        {
            "name" : "Cylinder.002",
            "primitives" : [
                {
                    "attributes" : {
                        "POSITION" : 15,
                        "NORMAL" : 16,
                        "TEXCOORD_0" : 17
                    },
                    "indices" : 11
                }
            ]
        },
        {
            "name" : "Cylinder.003",
            "primitives" : [
                {
                    "attributes" : {
                        "POSITION" : 18,
                        "NORMAL" : 19,
                        "TEXCOORD_0" : 20
                    },
                    "indices" : 11
                }
            ]
        },
        {
            "name" : "Cube.003",
            "primitives" : [
                {
                    "attributes" : {
                        "POSITION" : 21,
                        "NORMAL" : 22,
                        "TEXCOORD_0" : 23
                    },
                    "indices" : 24,
                    "material" : 1
                }
            ]
        }
    ],
    "accessors" : [
        {
            "bufferView" : 0,
            "componentType" : 5126,
            "count" : 70,
            "max" : [
                1,
                1.0162097215652466,
                1
            ],
            "min" : [
                -1,
                -1,
                -1
            ],
            "type" : "VEC3"
        },
        {
            "bufferView" : 1,
            "componentType" : 5126,
            "count" : 70,
            "type" : "VEC3"
        },
        {
            "bufferView" : 2,
            "componentType" : 5126,
            "count" : 70,
            "type" : "VEC2"
        },
        {
            "bufferView" : 3,
            "componentType" : 5123,
            "count" : 108,
            "type" : "SCALAR"
        },
        {
            "bufferView" : 4,
            "componentType" : 5126,
            "count" : 64,
            "max" : [
                1,
                1.3039751052856445,
                1
            ],
            "min" : [
                -1,
                -1,
                -1
            ],
            "type" : "VEC3"
        },
        {
            "bufferView" : 5,
            "componentType" : 5126,
            "count" : 64,
            "type" : "VEC3"
        },
        {
            "bufferView" : 6,
            "componentType" : 5126,
            "count" : 64,
            "type" : "VEC2"
        },
        {
            "bufferView" : 7,
            "componentType" : 5123,
            "count" : 108,
            "type" : "SCALAR"
        },
        {
            "bufferView" : 8,
            "componentType" : 5126,
            "count" : 192,
            "max" : [
                1,
                1,
                1
            ],
            "min" : [
                -1,
                -1,
                -1
            ],
            "type" : "VEC3"
        },
        {
            "bufferView" : 9,
            "componentType" : 5126,
            "count" : 192,
            "type" : "VEC3"
        },
        {
            "bufferView" : 10,
            "componentType" : 5126,
            "count" : 192,
            "type" : "VEC2"
        },
        {
            "bufferView" : 11,
            "componentType" : 5123,
            "count" : 372,
            "type" : "SCALAR"
        },
        {
            "bufferView" : 12,
            "componentType" : 5126,
            "count" : 192,
            "max" : [
                1,
                1,
                1
            ],
            "min" : [
                -1,
                -1,
                -1
            ],
            "type" : "VEC3"
        },
        {
            "bufferView" : 13,
            "componentType" : 5126,
            "count" : 192,
            "type" : "VEC3"
        },
        {
            "bufferView" : 14,
            "componentType" : 5126,
            "count" : 192,
            "type" : "VEC2"
        },
        {
            "bufferView" : 15,
            "componentType" : 5126,
            "count" : 192,
            "max" : [
                1,
                1,
                1
            ],
            "min" : [
                -1,
                -1,
                -1
            ],
            "type" : "VEC3"
        },
        {
            "bufferView" : 16,
            "componentType" : 5126,
            "count" : 192,
            "type" : "VEC3"
        },
        {
            "bufferView" : 17,
            "componentType" : 5126,
            "count" : 192,
            "type" : "VEC2"
        },
        {
            "bufferView" : 18,
            "componentType" : 5126,
            "count" : 192,
            "max" : [
                1,
                1,
                1
            ],
            "min" : [
                -1,
                -1,
                -1
            ],
            "type" : "VEC3"
        },
        {
            "bufferView" : 19,
            "componentType" : 5126,
            "count" : 192,
            "type" : "VEC3"
        },
        {
            "bufferView" : 20,
            "componentType" : 5126,
            "count" : 192,
            "type" : "VEC2"
        },
        {
            "bufferView" : 21,
            "componentType" : 5126,
            "count" : 24,
            "max" : [
                1,
                1,
                1
            ],
            "min" : [
                -1,
                -1,
                -1
            ],
            "type" : "VEC3"
        },
        {
            "bufferView" : 22,
            "componentType" : 5126,
            "count" : 24,
            "type" : "VEC3"
        },
        {
            "bufferView" : 23,
            "componentType" : 5126,
            "count" : 24,
            "type" : "VEC2"
        },
        {
            "bufferView" : 24,
            "componentType" : 5123,
            "count" : 36,
            "type" : "SCALAR"
        }
    ],
    "bufferViews" : [
        {
            "buffer" : 0,
            "byteLength" : 840,
            "byteOffset" : 0
        },
        {
            "buffer" : 0,
            "byteLength" : 840,
            "byteOffset" : 840
        },
        {
            "buffer" : 0,
            "byteLength" : 560,
            "byteOffset" : 1680
        },
        {
            "buffer" : 0,
            "byteLength" : 216,
            "byteOffset" : 2240
        },
        {
            "buffer" : 0,
            "byteLength" : 768,
            "byteOffset" : 2456
        },
        {
            "buffer" : 0,
            "byteLength" : 768,
            "byteOffset" : 3224
        },
        {
            "buffer" : 0,
            "byteLength" : 512,
            "byteOffset" : 3992
        },
        {
            "buffer" : 0,
            "byteLength" : 216,
            "byteOffset" : 4504
        },
        {
            "buffer" : 0,
            "byteLength" : 2304,
            "byteOffset" : 4720
        },
        {
            "buffer" : 0,
            "byteLength" : 2304,
            "byteOffset" : 7024
        },
        {
            "buffer" : 0,
            "byteLength" : 1536,
            "byteOffset" : 9328
        },
        {
            "buffer" : 0,
            "byteLength" : 744,
            "byteOffset" : 10864
        },
        {
            "buffer" : 0,
            "byteLength" : 2304,
            "byteOffset" : 11608
        },
        {
            "buffer" : 0,
            "byteLength" : 2304,
            "byteOffset" : 13912
        },
        {
            "buffer" : 0,
            "byteLength" : 1536,
            "byteOffset" : 16216
        },
        {
            "buffer" : 0,
            "byteLength" : 2304,
            "byteOffset" : 17752
        },
        {
            "buffer" : 0,
            "byteLength" : 2304,
            "byteOffset" : 20056
        },
        {
            "buffer" : 0,
            "byteLength" : 1536,
            "byteOffset" : 22360
        },
        {
            "buffer" : 0,
            "byteLength" : 2304,
            "byteOffset" : 23896
        },
        {
            "buffer" : 0,
            "byteLength" : 2304,
            "byteOffset" : 26200
        },
        {
            "buffer" : 0,
            "byteLength" : 1536,
            "byteOffset" : 28504
        },
        {
            "buffer" : 0,
            "byteLength" : 288,
            "byteOffset" : 30040
        },
        {
            "buffer" : 0,
            "byteLength" : 288,
            "byteOffset" : 30328
        },
        {
            "buffer" : 0,
            "byteLength" : 192,
            "byteOffset" : 30616
        },
        {
            "buffer" : 0,
            "byteLength" : 72,
            "byteOffset" : 30808
        }
    ],
    "buffers" : [
        {
            "byteLength" : 30880,
            "uri" : "data:application/octet-stream;base64,"
        }
    ]
}
