<svg xmlns="http://www.w3.org/2000/svg" xmlns:xlink="http://www.w3.org/1999/xlink" xmlns:lucid="lucid" width="1800" height="1080"><g transform="translate(180 -60)" lucid:page-tab-id="0_0"><path d="M480 366a6 6 0 0 1 6-6h148a6 6 0 0 1 6 6v108a6 6 0 0 1-6 6H486a6 6 0 0 1-6-6z" stroke="#a9a9a9" stroke-width="2" fill="#f5fbff"/><use xlink:href="#a" transform="matrix(1,0,0,1,492,372) translate(36.51851851851852 53.77777777777778)"/><path d="M800 366a6 6 0 0 1 6-6h148a6 6 0 0 1 6 6v108a6 6 0 0 1-6 6H806a6 6 0 0 1-6-6z" stroke="#a9a9a9" stroke-width="2" fill="#f5fbff"/><use xlink:href="#b" transform="matrix(1,0,0,1,812,372) translate(39.2962962962963 53.77777777777778)"/><path d="M1120 366a6 6 0 0 1 6-6h148a6 6 0 0 1 6 6v108a6 6 0 0 1-6 6h-148a6 6 0 0 1-6-6z" stroke="#a9a9a9" stroke-width="2" fill="#f5fbff"/><use xlink:href="#c" transform="matrix(1,0,0,1,1132,372) translate(33.46296296296296 53.77777777777778)"/><path d="M160 366a6 6 0 0 1 6-6h148a6 6 0 0 1 6 6v108a6 6 0 0 1-6 6H166a6 6 0 0 1-6-6z" stroke="#a9a9a9" stroke-width="2" fill="#f5fbff"/><use xlink:href="#d" transform="matrix(1,0,0,1,172,372) translate(38.24691358024691 38.77777777777778)"/><use xlink:href="#e" transform="matrix(1,0,0,1,172,372) translate(30.376543209876537 65.44444444444446)"/><path d="M322.5 395.85h135.88" stroke="#bdf139" stroke-width="3" fill="none"/><path d="M322.54 397.35H321v-3h1.54z" stroke="#bdf139" stroke-width=".05" fill="#bdf139"/><path d="M474.15 395.85l-14.27 4.64v-9.28z" stroke="#bdf139" stroke-width="3" fill="#bdf139"/><path d="M341.62 440.12H477.5" stroke="#bdf139" stroke-width="3" fill="none"/><path d="M325.85 440.12l14.27-4.63v9.26z" stroke="#bdf139" stroke-width="3" fill="#bdf139"/><path d="M479 441.62h-1.54v-3H479z" stroke="#bdf139" stroke-width=".05" fill="#bdf139"/><path d="M480 646a6 6 0 0 1 6-6h148a6 6 0 0 1 6 6v108a6 6 0 0 1-6 6H486a6 6 0 0 1-6-6z" stroke="#a9a9a9" stroke-width="2" fill="#f5fbff"/><use xlink:href="#f" transform="matrix(1,0,0,1,492,652) translate(48.27777777777778 53.77777777777778)"/><path d="M840 646a6 6 0 0 1 6-6h68a6 6 0 0 1 6 6v148a6 6 0 0 1-6 6h-68a6 6 0 0 1-6-6z" stroke="#a9a9a9" stroke-width="2" fill="#f5fbff"/><use xlink:href="#g" transform="matrix(1,0,0,1,852,652) translate(-5.950617283950621 72.44444444444444)"/><path d="M800 966a6 6 0 0 1 6-6h148a6 6 0 0 1 6 6v148a6 6 0 0 1-6 6H806a6 6 0 0 1-6-6z" stroke="#a9a9a9" stroke-width="2" fill="#f5fbff"/><use xlink:href="#h" transform="matrix(1,0,0,1,812,972) translate(35.345679012345684 73.02777777777777)"/><path d="M641.5 396h136.88M641.54 396H640" stroke="#bdf139" stroke-width="3" fill="none"/><path d="M794.15 396l-14.27 4.63v-9.26z" stroke="#bdf139" stroke-width="3" fill="#bdf139"/><path d="M660.62 440H797.5" stroke="#bdf139" stroke-width="3" fill="none"/><path d="M644.85 440l14.27-4.63v9.26z" stroke="#bdf139" stroke-width="3" fill="#bdf139"/><path d="M797.46 440H799M961.5 396h136.88M961.54 396H960" stroke="#bdf139" stroke-width="3" fill="none"/><path d="M1114.15 396l-14.27 4.63v-9.26z" stroke="#bdf139" stroke-width="3" fill="#bdf139"/><path d="M980.62 440h136.88" stroke="#bdf139" stroke-width="3" fill="none"/><path d="M964.85 440l14.27-4.63v9.26z" stroke="#bdf139" stroke-width="3" fill="#bdf139"/><path d="M1117.46 440h1.54M584 481.5v136.88M584 481.54V480" stroke="#bdf139" stroke-width="3" fill="none"/><path d="M584 634.15l-4.63-14.27h9.26z" stroke="#bdf139" stroke-width="3" fill="#bdf139"/><path d="M540 500.62V637.5" stroke="#bdf139" stroke-width="3" fill="none"/><path d="M540 484.85l4.63 14.27h-9.26z" stroke="#bdf139" stroke-width="3" fill="#bdf139"/><path d="M540 637.46V639M904 482.5v136.88M904 482.54V481" stroke="#bdf139" stroke-width="3" fill="none"/><path d="M904 635.15l-4.63-14.27h9.26z" stroke="#bdf139" stroke-width="3" fill="#bdf139"/><path d="M860 501.62V638.5" stroke="#bdf139" stroke-width="3" fill="none"/><path d="M860 485.85l4.63 14.27h-9.26z" stroke="#bdf139" stroke-width="3" fill="#bdf139"/><path d="M860 638.46V640M904 801.5v136.88M904 801.54V800" stroke="#bdf139" stroke-width="3" fill="none"/><path d="M904 954.15l-4.63-14.27h9.26z" stroke="#bdf139" stroke-width="3" fill="#bdf139"/><path d="M860 820.62V957.5" stroke="#bdf139" stroke-width="3" fill="none"/><path d="M860 804.85l4.63 14.27h-9.26z" stroke="#bdf139" stroke-width="3" fill="#bdf139"/><path d="M860 957.46V959" stroke="#bdf139" stroke-width="3" fill="none"/><path d="M800 86a6 6 0 0 1 6-6h148a6 6 0 0 1 6 6v108a6 6 0 0 1-6 6H806a6 6 0 0 1-6-6z" stroke="#a9a9a9" stroke-width="2" fill="#f5fbff"/><use xlink:href="#i" transform="matrix(1,0,0,1,812,92) translate(27.907407407407405 38.77777777777778)"/><use xlink:href="#j" transform="matrix(1,0,0,1,812,92) translate(18.061728395061728 65.44444444444446)"/><path d="M902 202.5v136.88M902 202.54V201" stroke="#bdf139" stroke-width="3" fill="none"/><path d="M902 355.15l-4.63-14.27h9.26z" stroke="#bdf139" stroke-width="3" fill="#bdf139"/><path d="M858 221.62V358.5" stroke="#bdf139" stroke-width="3" fill="none"/><path d="M858 205.85l4.63 14.27h-9.26z" stroke="#bdf139" stroke-width="3" fill="#bdf139"/><path d="M858 358.46V360" stroke="#bdf139" stroke-width="3" fill="none"/><path d="M1120 646a6 6 0 0 1 6-6h148a6 6 0 0 1 6 6v108a6 6 0 0 1-6 6h-148a6 6 0 0 1-6-6z" stroke="#a9a9a9" stroke-width="2" fill="#f5fbff"/><use xlink:href="#k" transform="matrix(1,0,0,1,1132,652) translate(39.2962962962963 38.77777777777778)"/><use xlink:href="#l" transform="matrix(1,0,0,1,1132,652) translate(13.123456790123456 65.44444444444446)"/><path d="M954.83 495.6l163.1 163.33" stroke="#bdf139" stroke-width="3" fill="none"/><path d="M943.7 484.44l13.35 6.8-6.56 6.56z" stroke="#bdf139" stroke-width="3" fill="#bdf139"/><path d="M1119 657.87v4.24l-2.15-2.14 2.12-2.12z" stroke="#bdf139" stroke-width=".05" fill="#bdf139"/><path d="M962.06 461.3l162.87 163.1" stroke="#bdf139" stroke-width="3" fill="none"/><path d="M963.15 460.28l-2.12 2.12-.03-.03v-4.24z" stroke="#bdf139" stroke-width=".05" fill="#bdf139"/><path d="M1136.07 635.57l-13.36-6.82 6.57-6.55z" stroke="#bdf139" stroke-width="3" fill="#bdf139"/><path d="M1440 646a6 6 0 0 1 6-6h148a6 6 0 0 1 6 6v108a6 6 0 0 1-6 6h-148a6 6 0 0 1-6-6z" stroke="#a9a9a9" stroke-width="2" fill="#f5fbff"/><use xlink:href="#m" transform="matrix(1,0,0,1,1452,652) translate(43.370370370370374 53.77777777777778)"/><path d="M1282.5 678h136.88M1282.54 678H1281" stroke="#bdf139" stroke-width="3" fill="none"/><path d="M1435.15 678l-14.27 4.63v-9.26z" stroke="#bdf139" stroke-width="3" fill="#bdf139"/><path d="M1301.62 722h136.88" stroke="#bdf139" stroke-width="3" fill="none"/><path d="M1285.85 722l14.27-4.63v9.26z" stroke="#bdf139" stroke-width="3" fill="#bdf139"/><path d="M1438.46 722h1.54" stroke="#bdf139" stroke-width="3" fill="none"/><path d="M-160 366a6 6 0 0 1 6-6H-6a6 6 0 0 1 6 6v108a6 6 0 0 1-6 6h-148a6 6 0 0 1-6-6z" stroke="#a9a9a9" stroke-width="2" fill="#f5fbff"/><use xlink:href="#n" transform="matrix(1,0,0,1,-148,372) translate(49.525 50.4)"/><path d="M2.5 420h135.88" stroke="#bdf139" stroke-width="3" fill="none"/><path d="M2.54 421.5H1v-3h1.54z" stroke="#bdf139" stroke-width=".05" fill="#bdf139"/><path d="M154.15 420l-14.27 4.63v-9.26z" stroke="#bdf139" stroke-width="3" fill="#bdf139"/><defs><path d="M185-189c-5-48-123-54-124 2 14 75 158 14 163 119 3 78-121 87-175 55-17-10-28-26-33-46l33-7c5 56 141 63 141-1 0-78-155-14-162-118-5-82 145-84 179-34 5 7 8 16 11 25" id="o"/><path d="M96-169c-40 0-48 33-48 73s9 75 48 75c24 0 41-14 43-38l32 2c-6 37-31 61-74 61-59 0-76-41-82-99-10-93 101-131 147-64 4 7 5 14 7 22l-32 3c-4-21-16-35-41-35" id="p"/><path d="M100-194c63 0 86 42 84 106H49c0 40 14 67 53 68 26 1 43-12 49-29l28 8c-11 28-37 45-77 45C44 4 14-33 15-96c1-61 26-98 85-98zm52 81c6-60-76-77-97-28-3 7-6 17-6 28h103" id="q"/><path d="M117-194c89-4 53 116 60 194h-32v-121c0-31-8-49-39-48C34-167 62-67 57 0H25l-1-190h30c1 10-1 24 2 32 11-22 29-35 61-36" id="r"/><g id="a"><use transform="matrix(0.06172839506172839,0,0,0.06172839506172839,0,0)" xlink:href="#o"/><use transform="matrix(0.06172839506172839,0,0,0.06172839506172839,14.814814814814813,0)" xlink:href="#p"/><use transform="matrix(0.06172839506172839,0,0,0.06172839506172839,25.925925925925924,0)" xlink:href="#q"/><use transform="matrix(0.06172839506172839,0,0,0.06172839506172839,38.2716049382716,0)" xlink:href="#r"/><use transform="matrix(0.06172839506172839,0,0,0.06172839506172839,50.61728395061728,0)" xlink:href="#q"/></g><path d="M266 0h-40l-56-210L115 0H75L2-248h35L96-30l15-64 43-154h32l59 218 59-218h35" id="s"/><path d="M100-194c62-1 85 37 85 99 1 63-27 99-86 99S16-35 15-95c0-66 28-99 85-99zM99-20c44 1 53-31 53-75 0-43-8-75-51-75s-53 32-53 75 10 74 51 75" id="t"/><path d="M114-163C36-179 61-72 57 0H25l-1-190h30c1 12-1 29 2 39 6-27 23-49 58-41v29" id="u"/><path d="M24 0v-261h32V0H24" id="v"/><path d="M85-194c31 0 48 13 60 33l-1-100h32l1 261h-30c-2-10 0-23-3-31C134-8 116 4 85 4 32 4 16-35 15-94c0-66 23-100 70-100zm9 24c-40 0-46 34-46 75 0 40 6 74 45 74 42 0 51-32 51-76 0-42-9-74-50-73" id="w"/><g id="b"><use transform="matrix(0.06172839506172839,0,0,0.06172839506172839,0,0)" xlink:href="#s"/><use transform="matrix(0.06172839506172839,0,0,0.06172839506172839,20.493827160493826,0)" xlink:href="#t"/><use transform="matrix(0.06172839506172839,0,0,0.06172839506172839,32.839506172839506,0)" xlink:href="#u"/><use transform="matrix(0.06172839506172839,0,0,0.06172839506172839,40.18518518518518,0)" xlink:href="#v"/><use transform="matrix(0.06172839506172839,0,0,0.06172839506172839,45.06172839506173,0)" xlink:href="#w"/></g><path d="M30 0v-248h187v28H63v79h144v27H63v87h162V0H30" id="x"/><path d="M177-190C167-65 218 103 67 71c-23-6-38-20-44-43l32-5c15 47 100 32 89-28v-30C133-14 115 1 83 1 29 1 15-40 15-95c0-56 16-97 71-98 29-1 48 16 59 35 1-10 0-23 2-32h30zM94-22c36 0 50-32 50-73 0-42-14-75-50-75-39 0-46 34-46 75s6 73 46 73" id="y"/><path d="M24-231v-30h32v30H24zM24 0v-190h32V0H24" id="z"/><g id="c"><use transform="matrix(0.06172839506172839,0,0,0.06172839506172839,0,0)" xlink:href="#x"/><use transform="matrix(0.06172839506172839,0,0,0.06172839506172839,14.814814814814813,0)" xlink:href="#r"/><use transform="matrix(0.06172839506172839,0,0,0.06172839506172839,27.160493827160494,0)" xlink:href="#y"/><use transform="matrix(0.06172839506172839,0,0,0.06172839506172839,39.50617283950617,0)" xlink:href="#z"/><use transform="matrix(0.06172839506172839,0,0,0.06172839506172839,44.382716049382715,0)" xlink:href="#r"/><use transform="matrix(0.06172839506172839,0,0,0.06172839506172839,56.72839506172839,0)" xlink:href="#q"/></g><path d="M197 0v-115H63V0H30v-248h33v105h134v-105h34V0h-34" id="A"/><path d="M127-220V0H93v-220H8v-28h204v28h-85" id="B"/><path d="M240 0l2-218c-23 76-54 145-80 218h-23L58-218 59 0H30v-248h44l77 211c21-75 51-140 76-211h43V0h-30" id="C"/><path d="M30 0v-248h33v221h125V0H30" id="D"/><g id="d"><use transform="matrix(0.06172839506172839,0,0,0.06172839506172839,0,0)" xlink:href="#A"/><use transform="matrix(0.06172839506172839,0,0,0.06172839506172839,15.987654320987653,0)" xlink:href="#B"/><use transform="matrix(0.06172839506172839,0,0,0.06172839506172839,29.50617283950617,0)" xlink:href="#C"/><use transform="matrix(0.06172839506172839,0,0,0.06172839506172839,47.96296296296296,0)" xlink:href="#D"/></g><path d="M212-179c-10-28-35-45-73-45-59 0-87 40-87 99 0 60 29 101 89 101 43 0 62-24 78-52l27 14C228-24 195 4 139 4 59 4 22-46 18-125c-6-104 99-153 187-111 19 9 31 26 39 46" id="E"/><path d="M141-36C126-15 110 5 73 4 37 3 15-17 15-53c-1-64 63-63 125-63 3-35-9-54-41-54-24 1-41 7-42 31l-33-3c5-37 33-52 76-52 45 0 72 20 72 64v82c-1 20 7 32 28 27v20c-31 9-61-2-59-35zM48-53c0 20 12 33 32 33 41-3 63-29 60-74-43 2-92-5-92 41" id="F"/><path d="M108 0H70L1-190h34L89-25l56-165h34" id="G"/><path d="M135-143c-3-34-86-38-87 0 15 53 115 12 119 90S17 21 10-45l28-5c4 36 97 45 98 0-10-56-113-15-118-90-4-57 82-63 122-42 12 7 21 19 24 35" id="H"/><g id="e"><use transform="matrix(0.06172839506172839,0,0,0.06172839506172839,0,0)" xlink:href="#E"/><use transform="matrix(0.06172839506172839,0,0,0.06172839506172839,15.987654320987653,0)" xlink:href="#F"/><use transform="matrix(0.06172839506172839,0,0,0.06172839506172839,28.333333333333332,0)" xlink:href="#r"/><use transform="matrix(0.06172839506172839,0,0,0.06172839506172839,40.67901234567901,0)" xlink:href="#G"/><use transform="matrix(0.06172839506172839,0,0,0.06172839506172839,51.79012345679013,0)" xlink:href="#F"/><use transform="matrix(0.06172839506172839,0,0,0.06172839506172839,64.13580246913581,0)" xlink:href="#H"/></g><path d="M143 4C61 4 22-44 18-125c-5-107 100-154 193-111 17 8 29 25 37 43l-32 9c-13-25-37-40-76-40-61 0-88 39-88 99 0 61 29 100 91 101 35 0 62-11 79-27v-45h-74v-28h105v86C228-13 192 4 143 4" id="I"/><path d="M232-93c-1 65-40 97-104 97C67 4 28-28 28-90v-158h33c8 89-33 224 67 224 102 0 64-133 71-224h33v155" id="J"/><path d="M33 0v-248h34V0H33" id="K"/><g id="f"><use transform="matrix(0.06172839506172839,0,0,0.06172839506172839,0,0)" xlink:href="#I"/><use transform="matrix(0.06172839506172839,0,0,0.06172839506172839,17.28395061728395,0)" xlink:href="#J"/><use transform="matrix(0.06172839506172839,0,0,0.06172839506172839,33.2716049382716,0)" xlink:href="#K"/></g><path d="M143 0L79-87 56-68V0H24v-261h32v163l83-92h37l-77 82L181 0h-38" id="L"/><path d="M59-47c-2 24 18 29 38 22v24C64 9 27 4 27-40v-127H5v-23h24l9-43h21v43h35v23H59v120" id="M"/><g id="g"><use transform="matrix(0.06172839506172839,0,0,0.06172839506172839,0,0)" xlink:href="#o"/><use transform="matrix(0.06172839506172839,0,0,0.06172839506172839,14.814814814814813,0)" xlink:href="#t"/><use transform="matrix(0.06172839506172839,0,0,0.06172839506172839,27.160493827160494,0)" xlink:href="#p"/><use transform="matrix(0.06172839506172839,0,0,0.06172839506172839,38.27160493827161,0)" xlink:href="#L"/><use transform="matrix(0.06172839506172839,0,0,0.06172839506172839,49.38271604938272,0)" xlink:href="#q"/><use transform="matrix(0.06172839506172839,0,0,0.06172839506172839,61.7283950617284,0)" xlink:href="#M"/></g><g id="h"><use transform="matrix(0.06172839506172839,0,0,0.06172839506172839,0,0)" xlink:href="#o"/><use transform="matrix(0.06172839506172839,0,0,0.06172839506172839,14.814814814814813,0)" xlink:href="#q"/><use transform="matrix(0.06172839506172839,0,0,0.06172839506172839,27.160493827160494,0)" xlink:href="#u"/><use transform="matrix(0.06172839506172839,0,0,0.06172839506172839,34.50617283950617,0)" xlink:href="#G"/><use transform="matrix(0.06172839506172839,0,0,0.06172839506172839,45.61728395061728,0)" xlink:href="#q"/><use transform="matrix(0.06172839506172839,0,0,0.06172839506172839,57.962962962962955,0)" xlink:href="#u"/></g><path d="M106-169C34-169 62-67 57 0H25v-261h32l-1 103c12-21 28-36 61-36 89 0 53 116 60 194h-32v-121c2-32-8-49-39-48" id="N"/><path d="M206 0h-36l-40-164L89 0H53L-1-190h32L70-26l43-164h34l41 164 42-164h31" id="O"/><g id="i"><use transform="matrix(0.06172839506172839,0,0,0.06172839506172839,0,0)" xlink:href="#o"/><use transform="matrix(0.06172839506172839,0,0,0.06172839506172839,14.814814814814813,0)" xlink:href="#N"/><use transform="matrix(0.06172839506172839,0,0,0.06172839506172839,27.160493827160494,0)" xlink:href="#F"/><use transform="matrix(0.06172839506172839,0,0,0.06172839506172839,39.50617283950617,0)" xlink:href="#w"/><use transform="matrix(0.06172839506172839,0,0,0.06172839506172839,51.85185185185185,0)" xlink:href="#t"/><use transform="matrix(0.06172839506172839,0,0,0.06172839506172839,64.19753086419753,0)" xlink:href="#O"/></g><g id="j"><use transform="matrix(0.06172839506172839,0,0,0.06172839506172839,0,0)" xlink:href="#I"/><use transform="matrix(0.06172839506172839,0,0,0.06172839506172839,17.28395061728395,0)" xlink:href="#q"/><use transform="matrix(0.06172839506172839,0,0,0.06172839506172839,29.629629629629626,0)" xlink:href="#r"/><use transform="matrix(0.06172839506172839,0,0,0.06172839506172839,41.9753086419753,0)" xlink:href="#q"/><use transform="matrix(0.06172839506172839,0,0,0.06172839506172839,54.32098765432098,0)" xlink:href="#u"/><use transform="matrix(0.06172839506172839,0,0,0.06172839506172839,61.66666666666666,0)" xlink:href="#F"/><use transform="matrix(0.06172839506172839,0,0,0.06172839506172839,74.01234567901234,0)" xlink:href="#M"/><use transform="matrix(0.06172839506172839,0,0,0.06172839506172839,80.18518518518518,0)" xlink:href="#t"/><use transform="matrix(0.06172839506172839,0,0,0.06172839506172839,92.53086419753086,0)" xlink:href="#u"/></g><g id="k"><use transform="matrix(0.06172839506172839,0,0,0.06172839506172839,0,0)" xlink:href="#s"/><use transform="matrix(0.06172839506172839,0,0,0.06172839506172839,20.493827160493826,0)" xlink:href="#t"/><use transform="matrix(0.06172839506172839,0,0,0.06172839506172839,32.839506172839506,0)" xlink:href="#u"/><use transform="matrix(0.06172839506172839,0,0,0.06172839506172839,40.18518518518518,0)" xlink:href="#v"/><use transform="matrix(0.06172839506172839,0,0,0.06172839506172839,45.06172839506173,0)" xlink:href="#w"/></g><g id="l"><use transform="matrix(0.06172839506172839,0,0,0.06172839506172839,0,0)" xlink:href="#I"/><use transform="matrix(0.06172839506172839,0,0,0.06172839506172839,17.28395061728395,0)" xlink:href="#q"/><use transform="matrix(0.06172839506172839,0,0,0.06172839506172839,29.629629629629626,0)" xlink:href="#r"/><use transform="matrix(0.06172839506172839,0,0,0.06172839506172839,41.9753086419753,0)" xlink:href="#q"/><use transform="matrix(0.06172839506172839,0,0,0.06172839506172839,54.32098765432098,0)" xlink:href="#u"/><use transform="matrix(0.06172839506172839,0,0,0.06172839506172839,61.66666666666666,0)" xlink:href="#F"/><use transform="matrix(0.06172839506172839,0,0,0.06172839506172839,74.01234567901234,0)" xlink:href="#M"/><use transform="matrix(0.06172839506172839,0,0,0.06172839506172839,80.18518518518518,0)" xlink:href="#z"/><use transform="matrix(0.06172839506172839,0,0,0.06172839506172839,85.06172839506172,0)" xlink:href="#t"/><use transform="matrix(0.06172839506172839,0,0,0.06172839506172839,97.4074074074074,0)" xlink:href="#r"/></g><g id="m"><use transform="matrix(0.06172839506172839,0,0,0.06172839506172839,0,0)" xlink:href="#E"/><use transform="matrix(0.06172839506172839,0,0,0.06172839506172839,15.987654320987653,0)" xlink:href="#C"/><use transform="matrix(0.06172839506172839,0,0,0.06172839506172839,34.44444444444444,0)" xlink:href="#o"/></g><path d="M190 0L58-211 59 0H30v-248h39L202-35l-2-213h31V0h-41" id="P"/><path d="M84 4C-5 8 30-112 23-190h32v120c0 31 7 50 39 49 72-2 45-101 50-169h31l1 190h-30c-1-10 1-25-2-33-11 22-28 36-60 37" id="Q"/><path d="M141 0L90-78 38 0H4l68-98-65-92h35l48 74 47-74h35l-64 92 68 98h-35" id="R"/><g id="n"><use transform="matrix(0.05,0,0,0.05,0,0)" xlink:href="#P"/><use transform="matrix(0.05,0,0,0.05,12.950000000000001,0)" xlink:href="#Q"/><use transform="matrix(0.05,0,0,0.05,22.950000000000003,0)" xlink:href="#R"/><use transform="matrix(0.05,0,0,0.05,31.950000000000003,0)" xlink:href="#M"/></g></defs></g></svg>